<?xml version="1.0" encoding="utf-8"?>
<!-- Generator: Adobe Illustrator 22.0.0, SVG Export Plug-In . SVG Version: 6.00 Build 0)  -->
<svg version="1.1" id="Layer_1" xmlns="http://www.w3.org/2000/svg" xmlns:xlink="http://www.w3.org/1999/xlink" x="0px" y="0px"
	 viewBox="0 0 960 500" style="enable-background:new 0 0 960 500;" xml:space="preserve">
<style type="text/css">
	.st0{fill:#E9E9E9;}
</style>
<title>Qt SVG Document</title>
<desc>Generated with Qt</desc>
<g>
	<g>
		<g>
			<polygon class="st0" points="529.3,484.2 526.5,480.1 524.4,477.5 520.5,476.8 515.4,479.1 513.6,482.9 510.7,485.4 503.4,483.5 
				495.6,479.8 491.1,478.6 498.7,484.8 504.3,487.8 511.3,490.8 517.1,491.6 521.1,493.3 524.4,493.8 527.1,493.9 531.8,492.2 
				533.6,490 536.4,491.9 541.7,491.7 544.2,488.9 536.4,487.5 			"/>
			<polygon class="st0" points="497.8,84.5 492.7,83.7 492.2,85.5 495.2,87.2 497.8,86.2 501.1,86.6 503.7,86.2 507.4,87.1 
				507.7,88.7 509.1,89.6 511.3,85.8 513.1,85 514,86.4 516.1,86 517.1,85 518.9,85.3 521.5,85 524.1,86.2 526.1,84 523.4,82 
				521,81.8 521.1,80.1 518.1,80.2 517.1,78.3 515.7,78.4 512.4,77 508.1,77 507.4,77.9 502.6,77 499.2,76.8 498,78.3 501.5,79.2 
				501.4,81.3 503.9,83.7 502,84.9 			"/>
			<polygon class="st0" points="471.6,47.6 470.4,51.1 472.5,52.7 473.9,55.8 475.2,55.6 475.2,52.4 473.3,47.8 			"/>
			<polygon class="st0" points="476.3,40.3 476.2,43.2 477.2,43.9 478.2,39.9 473.8,37.4 473.8,38.1 			"/>
			<polygon class="st0" points="473.7,40 473.5,38.6 469.8,38.4 467.2,38.8 467.6,40.9 			"/>
			<polygon class="st0" points="576.8,471.2 572.1,469.8 565.4,473.2 568.2,475.6 572.9,473.2 575.4,475.1 582.8,473.4 584.5,471.5 
				580.1,469 			"/>
			<polygon class="st0" points="710.7,224 708.8,217 706.8,215.2 702.1,215 697.9,213.4 690.8,207.2 682.6,202.7 674.4,202.9 
				663.6,199.9 657.2,201.7 658.1,198.6 655.4,195.4 646.3,192 639.3,190 635.1,193.6 634.9,188.1 625.2,187.2 623.4,185.6 
				627.6,181 627.4,177.2 624.5,176.3 621.4,166.6 620,163.6 618.1,163.8 617.2,161.6 611.4,156.9 607.3,155.6 605.4,155 
				599.5,153.5 595,153.9 594.4,154.9 587.8,153.8 585.6,151.9 582.7,149.2 580.6,149.1 580.5,146.2 577,142.6 573.4,140.6 
				571.2,139.3 568.4,139.4 567.5,135 563.3,132.3 558.9,131.8 557,129.2 561.7,127.6 555.1,127.7 548.2,128 548.2,129.4 
				545.1,131.1 540.8,130.4 537.7,128 531.8,128.5 526.8,128.5 526.6,126.7 523,123.6 519.1,123.5 517.2,119.6 515.2,121.4 516,124 
				509.1,126.2 509.4,130.4 511.1,132.3 509.9,136.3 507.5,136.7 505.4,132.3 507.8,129.1 507.9,126.2 506.1,123.7 509.3,123.1 
				509.5,121.7 510.6,119.9 509.1,118.4 507.2,118.1 504.5,120.8 502.3,122 498,124.8 493.7,124.3 493.2,125.5 489.7,125.6 
				486.6,128.1 485.6,132.8 485.5,134.6 483.2,135.2 479.1,139.1 476.2,138.9 474.2,137.4 472.4,135.7 469.9,134.8 466.8,134.6 
				467,134 464,133.7 462.1,135.4 458.7,136.5 456.4,137.9 453.7,138.3 452.1,136.9 451.6,137.4 449.4,137.1 449.5,135.9 447.6,134 
				445,131.6 442.8,129.4 441.4,126.4 440.6,125.5 440.3,124 441.5,122.6 441.1,121.1 441.6,118.7 442.4,118.2 442.3,115.7 
				442,114.3 442.2,111.9 442.8,109.6 444,107.8 443.5,105.7 443.8,104.5 444.2,104 442.8,102.4 440.8,101.6 439.2,100.4 
				437.5,99.3 436.6,99.2 434.1,98.4 433,98.9 431.5,99.1 430.2,98.7 428.5,98.4 427.8,99 426,99.6 423.5,99.8 420.9,99.3 
				420.1,99.5 419.6,99.1 418,99.2 416.8,100.1 416.2,99.9 414.6,99.2 414.1,100 412.3,99 413.4,97.1 414.4,97 415.5,95.5 
				416.1,92.7 415.8,92.2 416.3,90.2 415.9,89.3 416.8,87 416.8,85.4 415.8,85.4 415.8,84.6 416.9,84.5 418.3,85.9 419.7,81.6 
				420.5,79.2 419.5,78.3 420.8,74.9 423.8,71.6 424,69 422.7,67.8 419.3,68.3 414.4,68.1 408.6,69.4 404.8,70.8 403.9,72.4 
				403.4,77.1 402.1,80.3 398.6,82.5 395.1,83.5 391,84.5 386.8,85 381.9,86.6 379.7,84.3 373.8,82.8 371.6,80.1 370.3,76.9 
				366.7,72.8 365.6,68.5 363.9,65.8 362.9,62.8 363.4,60.1 363.8,52.7 364.8,48.8 367,43.9 364.8,44.1 360.9,42.9 356.6,41.1 
				355,38.6 353.8,34.7 350.5,31.5 348.6,28.3 345.9,24.5 342,22.3 337.5,22.4 334,26.8 329.4,25.1 326.5,23.5 325.2,20.4 
				323.3,17.5 320.1,15.1 317.2,13.4 315.2,11.4 305.6,11.4 305.6,13.7 301.3,13.7 290.3,13.7 277.7,9.8 269.3,7.2 269.9,6.1 
				262.8,6.7 256.6,7.1 258.8,12.1 261.4,16.5 263.4,20.1 265.4,23.6 268.7,25.1 272.9,29 272.7,31.5 270.7,33.6 268.4,33.3 
				268,33.7 271.3,36.9 274.7,38.2 276.1,39.7 276.8,38.9 280.6,41.4 283.2,43.1 284.1,46.1 283.9,50.2 286.7,51.6 290.7,54.2 
				294.3,57.4 295.8,60.7 296.7,60.8 299.1,58.7 299.2,57.7 297.2,55.3 295,52.8 292.3,52.6 292,49.7 290.5,47.1 288.8,44.7 
				287,39.5 283.5,36.7 282.4,34.8 280.7,33.4 279.6,29.8 278.6,29.9 277.9,28 277,27.6 276.1,26.3 272,22.5 270.1,20.2 269.6,16.1 
				268.7,13.4 269.5,11.2 272.7,12.7 274.5,12.4 278.5,14.6 278.5,16.8 280.4,21 283.4,25.1 283.6,26.9 286.2,29.6 289.4,32.5 
				292.4,32.9 293.8,36.8 297,39.5 299.8,40.7 299,44.2 300,45.5 304.8,47.8 307.4,51.2 313,55.5 317.9,61 319.7,63.8 320.2,66 
				322.1,68.5 322,70.4 320.8,71.8 321.3,73.4 319.5,73.9 320.8,76.6 323.6,80.1 329.5,83.2 331.8,85.8 337.5,87.5 340.6,87.8 
				342,89.3 346.6,92 352.8,94.5 357,95.3 362.1,97.8 366.3,98.9 370.2,100.3 373,99.8 377.4,97.7 380.5,97.3 385,98.8 387.8,100.5 
				394.1,106.5 397.1,108.8 399.6,109.9 403,110 405.9,110.9 407.4,112.1 410.5,112.5 412.8,113.6 414.8,114.1 418,114.2 
				418.6,112.9 420.3,113.3 421.2,115.1 420.8,115.5 419.9,114.6 419.3,115.5 422,118 424.4,119.7 425.6,121.6 428.2,123.8 
				430.1,125.5 428.8,126.6 430.4,127.4 429.6,129.1 429.6,130.8 430.4,131.9 432.1,132.5 433.4,134 434.5,132.7 434.1,131.1 
				435.6,132.1 435.9,133.7 437.8,134.4 440,135.5 441.6,136.8 441.8,138 441.1,139 442.2,140.1 445.2,141.4 445.9,142.2 446,141 
				448.4,141 449.8,141.6 452.1,142 453.2,144.2 455,144.5 455.8,143.6 456.7,146.9 459.3,146.6 460.1,145.8 461.6,145.1 459,142.1 
				459.5,141 460.7,140.8 462.9,139.4 464.1,137.5 466.5,137.1 469.2,138.6 470.3,140.5 471.7,140.8 470.3,142.3 471.5,145.3 
				473.3,146.9 475.6,149.8 476.4,154.5 475.2,156 476.5,161 475.4,164.2 477.5,165.5 475.4,168.4 473,171.9 470.3,172.3 469,174.3 
				469.2,177 467.2,177.4 467.9,179.2 464.1,181.4 461.1,182.5 461.5,184.8 459.4,188.4 458.4,191.8 456.5,192.6 457.4,197.6 
				456.3,199.2 459.6,201.6 461.7,199.1 462.9,201.5 459.9,205.6 455.5,209.1 453.8,212.9 456.5,218.2 454.7,220.7 458.6,222.9 
				462.9,226.5 464.7,230.6 466.9,233.1 472.2,244.1 477.6,254.3 482.3,261.5 481.4,263.1 483.7,267.7 487.9,271.1 497.8,277.1 
				508.8,282.7 509.2,284.9 514.8,288.1 515.9,295.9 516.3,304.9 514.6,317.3 512.8,328.8 511.8,339.4 508.6,346.2 509.3,353 
				507.6,357.6 508.9,365.8 506.6,374.1 502.7,382.9 499.4,391.8 497,392 497.5,398.2 499.1,403.6 496.5,407.4 494.7,417.6 
				492.9,425.5 496.4,426.3 498.1,419.4 501.8,420.9 498.9,432.3 492.8,430.4 490.9,439.5 485.7,444.4 494.1,446 488.2,450.3 
				485.9,455.6 486.6,465 489.4,468.7 487.8,471.9 489.5,475.4 496.4,478.6 502.7,482.4 508.9,484.2 511.3,484.1 512.2,478.9 
				517.2,477 519.8,475.6 524.7,475.6 527.1,475.9 523.4,472.7 521.6,467 523.9,464.4 528.9,462.2 532.5,455.7 539,452.6 
				540.9,447.7 535.6,446.6 530.2,442.5 531.8,438.4 536.1,435.5 541.3,435.5 542.6,432.6 543.5,427 547.9,423.6 553,421.9 
				551.3,419 548.3,420.7 544.6,419.1 543.8,413.6 545.9,412.1 551.2,414.1 556.9,413.4 560.2,411.4 559.2,408.7 560.3,404.5 
				559.2,401.2 565.2,401.8 576.3,400.6 584.5,397.7 589.8,390.6 590.1,387.9 586.6,385.5 587.4,381.7 580.4,377 580.8,374.1 
				584.1,377.1 587.9,376.9 593,379.3 596,378.7 600,379.8 606.3,376.8 608.7,373.3 612.3,370.1 614.8,364.9 618.6,362.3 
				623.5,357.9 629.6,348.2 633.4,345.2 634.7,342.5 635.7,336.9 634.8,333.8 635.6,329.7 640.3,324.2 646.8,319.8 653,318.2 
				656.9,315.8 665.6,313.6 671.6,313.7 672.8,310.3 677.3,307.9 678.3,302.2 683.9,295 684.8,287.6 686.6,285.5 687.2,281.8 
				688.7,273.3 688.3,263 689.9,258.9 691.2,258.8 695.3,254 698.8,247.8 706.6,240.1 709.4,236.5 711.6,227.3 			"/>
			<polygon class="st0" points="535.6,87.5 539.8,87.5 541.2,86.1 540.2,85 537.4,84.5 532.9,84.5 532.1,85.3 532.4,87.7 			"/>
			<polygon class="st0" points="478.8,85.2 475,84.7 473.8,84.5 471.5,84.9 470.8,86.1 474,88.1 477,89 478.7,88.1 482.6,88 
				481.7,86.5 			"/>
			<polygon class="st0" points="439.2,65.8 440,64.4 442.3,64.4 446.3,61.5 451.7,61.8 449.6,63.1 451.6,64.2 458.8,65.1 
				460.4,66.2 465.6,67.7 468.7,67.5 470,70.6 471.9,72.2 475.5,72.6 477.7,74 474,77.1 481.9,76.6 485.7,77 489.4,76.8 493.1,76.1 
				493.8,74.8 489.6,72.5 485.5,72.3 485.9,70.7 482.6,69.6 480.8,69.7 477.4,67.2 472.7,63.8 470.7,62.5 465.6,63.1 463.4,61.1 
				458.2,59.2 453.9,59.1 449.1,58.7 447.8,59.3 443.6,59.9 440.7,60.9 438.3,62.2 437.1,64.2 434.1,65.9 436.5,66.4 			"/>
			<polygon class="st0" points="561.3,131.1 562.3,131.6 566.9,131 567.1,126.8 566,126.6 562.8,127.4 562.9,129.5 			"/>
		</g>
	</g>
</g>
</svg>
