<?xml version="1.0" encoding="utf-8"?>
<!-- Generator: Adobe Illustrator 22.0.0, SVG Export Plug-In . SVG Version: 6.00 Build 0)  -->
<svg version="1.1" id="Layer_1" xmlns="http://www.w3.org/2000/svg" xmlns:xlink="http://www.w3.org/1999/xlink" x="0px" y="0px"
	 viewBox="0 0 960 500" style="enable-background:new 0 0 960 500;" xml:space="preserve">
<style type="text/css">
	.st0{fill:#E9E9E9;}
</style>
<title>Qt SVG Document</title>
<desc>Generated with Qt</desc>
<g>
	<g>
		<g>
			<path class="st0" d="M712,179.3l-0.2-1.9h-2.6l-3.2,2.3l-3.6,0.7l-3.1,1l-2.2,0.1l-3.8,0.2L691,183l-3.3,0.4l-5.9,2.1l-7.3,0.8
				l-6.4,1.7h-3.3l-3-2.8l-1.3-2.8l-2.2-1.2l-2.9-1.8l3.9-1.6l0.2-2.8l-1.6-2.1l-3.3-2l-2.1-2.3l-3.7-3.9l-3.7-3.8l-9.2-6.4
				l-3.7-3.3l-1.9-6.2l-3.9-7.8l-3.7-2.5l-2.6-1.7l-2.5-8.1l-1-6.9l1.5-1.2l-2.2-6.6l-1.2-1.4l-7.9-6.1l-0.2-4.4l1.3-1.2l-6.1-7.5
				l-2.2-3.8l-2.5-3.7L592,71.6l-4.1-6.8l-2.8-7.1l0.7-0.6l4.8,9.7l3,3l2.2,2.2l1.6-1.2l1.8-3.5l1.5-5.1l1.9-2.7l-0.7-1.8l-3.8-9.8
				l-3.3,1.7l-5.3-0.4l-5.4-1.6l-1.6,2.2l-1.8-3.3l-4.8-0.9l-6,0.6l-2.8,1.9l-5.2,2.1l-3.1-1.1l-6.7-2l-6.5-1.8l-9,0.1l-1.6-2.2
				l-6.7-0.8l-2.1-1.2h-2.5l-2.3-3l-9.1-1.4l-4.6,0.9l-4.9,3.2l-2.1,3.3l1.6,5.2l-3.2,3.1l-3.3,1.7l-7.2-3.4l-9.5-2.8l-6.1-1.3
				l-3.2-6l-9-3l-5.6-1.1l-2.8,0.6l-7.9-2.3l-2.6-1.1l-1.7-3.2l-3.5-0.1l-1.3-3.7l4.4-3.4l0.9-5.8l-2.3-1.7v-3.1l3.4-3.3l-0.5-1.3
				l-5.7,2.5l0.2-3.4l-4.7-0.8l-7.4,2.7l-4.6,0.4L416.4,8l-7.2,0.1l-6.4,2.7l-3.4-1l-11.2,0.5l-11.4,1.2l-6.5,2.1l-4.3,2.8l-7.3,1.2
				l-6.5,3.7l-2.9-0.1l-7-1.5l-6.4,0.5l-4.1-2.9h-5l-2.1,4.1l-4.5,7l-5,2.8l-6.8,3.1l-4.3,4.6l-0.9,3.6l-2.6,5.8l1.7,8.4l-5.6,5.6
				l-3.4,1.8l-5.3,4.6l-6.3,0.7l-3.4,2.6l-0.1,0.1l-4.3,6.9l-4.5,2.5l-2.4,4.2l-0.2,3.6l-1.8,3.9l-2.3,1.1l-3.8,4.3l-2.3,4.8
				l0.4,2.3l-2.2,3.5l-2.6,1.8l-0.2,3l-0.3,2.9l3.6,2.9l1.7,3.2l-0.7,3.4l0.8,3.4l0.7,6.7l-0.8,6.4l-1.9,3.3l0.6,3.6l-1.6,3.5
				l-3.3,4.7l-3,1.3l3.4,2.4l2.8,5.3l-0.9,3l1.1,5.2l0.4,1.4l2.1,1.4v1l1.5,1.9l2.8,0.4l3.6,2.8l2,1.1l1,1.5l0.8,3l1.7,1.3l1.7,0.9
				l2.6,2.6l3,4l0.8,5l1.2,2.5l3.5,3.6l4.9,2.7l1.8,0.5l4.5,4.4l5.8,3.7l6.1,5.1l7,3.2l1.8-0.1l1.3,0.2l6.7-2.5l4.7-1.9l8-1.2
				l4.3-0.1l4.7,1.3l3.1-0.1l6,1.9l6.1-2l3.8-2.3l10.6-4l5.4-1.4l5.6-0.8h6l5.1-0.1l4.8,4.4l2.2,4.9l3.6,4.2l5.4,0.2l2.6-1.5
				l2.6,0.4l7-2.4l-0.1,1.9l1.7,1l1.4,3l3.1,1.1l2.6,4.5l-1,5.3l-2.3,7.6l1.3,1l-1.4,5l-1.6,4.9l-1.5,2.2l-0.2,2.2l4.1,7l4.5,5.6
				l6.9,6.8l5.5,7.1l1.8,5.1l0.9,2.1l-0.6,1.3l3.4,4.3l1.4,4.5l2,6.5l-2.1,2.7l-0.4,1.4l1.7,4l1.8,4.1l2,2.4l0.4,3.8l-0.7,5l-2.2,3
				l-3.9,4.4l-1.6,2.8l-2.2,6.1l-0.4,2.9l-2.3,6.2l-0.9,5.9l0.6,4.2l0.4,5.2l5.5,6.6l1.5,4.2l3.6,8.1l3.5,5.6l2.6,2.8l0.9,3.7
				l0.2,8.1l2.3,10.4l1.7,4.9l1.5,6.6l2.6,4.9l5,5.1l4.8,8.8l0,0l3.4,5.7l4.4,6.3l0.2,5.2l-2.2,1.2l2.2,4.5v4l0.9,1.8l0.3-0.9l2.9,3
				l2.3,0.1l2.9,2.4l3.1-0.2l4.2-2.6l5.8-1.1l7-2.7l2.8,0.4l4.1-0.8l7.3,1.3l3.3-1.3l4.1,1l0.9-1.9l3.4-0.4l7.1-2.6l5.1-3.1l4.8-4
				l7.6-7l3.8-4.8l1.9-3.5l2.9-3.4l1.3-1l4.6-3.4l1.7-3l0.8-5.6l1.7-4.9l0.6-3.6l-1.7-0.5l-0.6-2.8l3-2.5l8.1-3.7l5.6-2.3l2.8-2.4
				l1-2.8l-1.6-1.2l1.1-3.1l0.2-6.6l-1.2,0.3l-0.1-2l-1.3-4l-3.2-5.1l0.6-4.8l2.8-1.6l4.7-4.8l2.6-1.2l7.6-7.2l7.6-3.3l6.2-2.6
				l4.3-4.2l2.6-4.7l2-4.8l-1.2-3.3l-0.3-10.5l-0.8-5.9l0.3-6.7l-1.1-3l-2.5-1.5l-2.8-6.7l-2.4-4.2l0.4-3.2l-0.4-2.1l1.9-4.1
				l-0.2-1.8l-4.3-2.5l-0.4-3.8l3.1-8.3l2.7-2.2l1.3-4.5l2.2-2.7l1-4.8l2.5-0.5l1.7-2.8l4.7-2.7l1.5-1.6l1.6-3.6l7.4-8.2l6.3-5.1
				l10.1-6.7l6.8-5.5l7.9-9.2l5.8-7.6l5.8-9.9l4.2-8.6l3.2-7.5l1.9-7.3l1.4-2.4v-3.5L712,179.3z M601.2,354.8l-1.1-1.4v-2.5l-1.6-2
				l0.1-2.9l-2-5l2-3.8l-0.4-8.1l-2.4-4.4l0.2-0.7l0.4-1.3l3.6,3.6l0.6,7.1l2.2,2.6v0.1l-1.6,6.4l1.1,7.7l0.1,0.9l1.3,0.3l1.4,3.6
				l-0.2,0.8l-2.4-2.6L601.2,354.8z M572.9,314.5l0.3-1.1l-2-1.8l-0.9-3.7l-4.1-3.7l-2.3-4.8l1.2-2.8l-1.8-3.8l1.2-10.8v0.1l2.5,6.4
				v0.3l-0.3,2.9l1.3,1l-0.2,2.9l1.3,2.7l-1.5,2.6l5.4,4.6l0.5,4.2l3.4,6.9l0.6,1.1l-1.1,0.4l-1.5-1.4l-2.3-0.5L572.9,314.5z
				 M593.6,268.7l-2.2,3.1l2.7,2.3l-3.9,1.7l-0.8-0.8l-3.9,0.4l-3,1.5l-1.9-2.6l1.3-4.7l0.2-4.1l-0.3-2.6l3.1-3.9l4.3-1l2.9-1.6
				l3.5,1.3l0.3,0.5l1.6,2.6l-0.4,5L593.6,268.7z"/>
			<polygon class="st0" points="704.8,350 703.1,345.6 701.3,342.7 699,339.8 696.7,342.8 696.6,346.9 692.9,351.6 690,350.8 
				690.9,353.7 688.9,357.1 683.4,361.2 679.5,365.1 676.5,365.2 674,366.4 670.3,367.8 666.9,368 666,372.3 663.6,376.1 
				664.2,382.3 665.5,386.5 667,389.7 666.4,394 663.2,399.1 663.2,401.4 660.1,402.6 658.9,407.4 659.5,412.3 661.9,417.7 
				662.3,423.7 664.2,427.2 669.5,429.6 673.4,431.3 679.3,428.5 684.8,426.9 687.8,419.1 690.4,409.7 694.6,396.9 697.9,387.6 
				700.6,379.7 701,374 702.9,372.4 703.5,369.6 702.2,364.6 703.5,362.6 705.7,366.5 706.9,364.6 707.6,361.3 705.9,358.2 			"/>
		</g>
	</g>
</g>
</svg>
