<?xml version="1.0" encoding="utf-8"?>
<!-- Generator: Adobe Illustrator 22.0.0, SVG Export Plug-In . SVG Version: 6.00 Build 0)  -->
<svg version="1.1" id="Layer_1" xmlns="http://www.w3.org/2000/svg" xmlns:xlink="http://www.w3.org/1999/xlink" x="0px" y="0px"
	 viewBox="0 0 960 500" style="enable-background:new 0 0 960 500;" xml:space="preserve">
<style type="text/css">
	.st0{fill:#E9E9E9;}
</style>
<title>Qt SVG Document</title>
<desc>Generated with Qt</desc>
<g>
	<g>
		<g>
			<polygon class="st0" points="606.4,439.2 608.2,430.8 604.8,426.5 599.9,425.9 597.5,422.1 596.3,417.3 593.9,417.2 590,414.8 
				592.7,409.3 587.6,406.2 583.6,400.5 577.9,395.8 571,395.7 564.6,388.4 560.9,385.6 555.6,381 549.6,374.4 539.1,373 
				534.7,372.8 535.3,376.2 542.4,383.7 547.5,387.5 551.1,393.3 557.2,397.6 559.7,402.9 561.7,408.7 567.6,414.4 572.8,423.9 
				576.2,429 581.3,434.5 584.2,438.6 592.9,444.2 598.7,449.8 606.2,449.7 			"/>
			<polygon class="st0" points="845,427.6 837.7,426.3 832.7,423.9 826.9,421.5 820.8,421.5 813,425.6 807.4,432.8 800.3,428.8 
				798.5,417.8 797.4,415.3 786.5,412.5 783,414.7 773.9,416.3 776.7,419.7 782.8,420.9 785.5,425 795.4,425 796,426.8 791.1,426.7 
				783.8,429.1 789,432.4 789,435.4 790.6,437.9 793.2,437.3 795.2,434 805.4,440.3 811,440.8 824.1,446.6 827.4,452.3 829.2,459.7 
				824.9,461.5 822,467.1 830.6,466.9 832.3,464.9 839.2,466.3 845.2,471.9 845.1,449.7 			"/>
			<polygon class="st0" points="685.3,409.3 687.6,404.6 695.6,403.8 688,397.6 689.2,394.4 684.2,388 688.1,381.9 693.1,379.6 
				691.9,376.3 696.4,375.9 696.9,373.3 691.2,371.2 686.8,369.3 686.4,366.4 683,362.9 680.2,363 676.8,368.3 671.6,373 
				665.8,376.7 663.1,379.2 659.8,383.5 654.9,388.9 646.8,390.4 643.9,391.7 642.5,397.4 637.3,398.7 632.3,396.3 628.2,400.9 
				627.5,407.1 628.4,413.1 631.7,418.9 635,420.8 636.1,429.9 641.7,430.7 646.1,430.3 648.6,433.6 656.7,431.1 660.1,433.3 
				664.9,433.7 667.6,437.8 675.3,434.8 676.3,437.2 678.9,426.8 679.1,420.1 685.6,415.4 			"/>
			<polygon class="st0" points="708.8,419.5 702.7,413.5 703.7,408.4 709.6,407.4 720.9,407 727.5,408.4 732.6,407.1 738,400.3 
				736.8,398.8 730.1,403.7 722.3,404 713.8,403.1 708.5,401.1 702.7,406.1 701.3,408.9 697.9,419.2 696.9,424.5 694.1,429 
				696.2,433.6 699,433.7 700.1,440.2 698.1,446.5 701.1,448.5 705.4,447.5 705.1,437.8 704.5,429.9 709,427.8 708.5,434.4 
				713.4,438.4 712.6,441 714.2,442.9 720.9,440.3 717.6,445.8 720.3,448.2 723.9,446.2 724,441.8 717.9,433.9 719.1,431.6 
				712.7,422.9 718.7,420.3 721.6,416.3 724.6,417.3 725.1,414.1 712.5,416.5 			"/>
			<polygon class="st0" points="654.8,461.5 652.3,457.1 639.7,453.9 638.2,456.7 625.2,456 624.3,453.6 621.5,453 616,450.4 
				607.8,450 603.1,456.5 609.3,457 610.5,459.9 622.9,462.7 625.7,461.8 630.7,462.5 638.5,465.1 644.9,466.3 651.9,466.8 
				658.1,466.6 665.5,469.4 673.3,466.8 665,462.8 			"/>
			<polygon class="st0" points="759.3,415.3 756.5,411.7 757.6,407.5 761.1,408.2 761.4,402.3 760.8,399.5 756.8,398.9 756.3,395.2 
				754,397.7 752.7,403.1 754.7,411.8 757.4,416.1 			"/>
			<polygon class="st0" points="766.1,429 757.7,429.3 756.1,433 760.8,433.2 764.6,432.8 770.3,433.4 776,436.2 773.5,431 			"/>
			<polygon class="st0" points="711.6,467.9 707.3,465.9 701.9,467.3 701.9,469.8 711,470.6 721.2,468.7 722.2,464.9 716.1,467.4 
							"/>
			<polygon class="st0" points="694.8,466.2 690.6,466.7 688.2,464.9 686.4,467.3 682.7,467.4 680.3,471.3 684,471.3 688.7,470.4 
				696.5,469.1 			"/>
			<polygon class="st0" points="701.8,473.5 695.4,474.8 704.5,479.6 707.3,479.5 707.7,477.6 705.3,475.6 			"/>
			<polygon class="st0" points="799.5,449.2 798.2,451.7 798.9,456.8 802.4,452.1 802.4,448.9 800.9,446.9 			"/>
			<polygon class="st0" points="744.4,434.5 749.1,435.7 751.7,433.4 750,431.2 743.1,431.5 			"/>
			<polygon class="st0" points="747.6,467 742.8,467.2 737,468.7 736.2,470.3 729.5,473 726.5,477.2 725.9,479.5 726.7,480.3 
				732.6,478.8 737,473.7 742.7,471.8 749.7,468.8 752.2,467 749.7,466.1 			"/>
			<polygon class="st0" points="764.2,171.8 766.7,168.1 766.7,160.3 765,155.9 759.1,147.9 755.3,144.9 752.6,143.8 753.4,143 
				753.6,140.1 756.5,138.3 761.1,137.2 763.6,135.1 764.8,134 768.3,132.5 768.1,127.6 770.1,125.3 773,123 775.6,123.4 
				774.7,122.2 774.6,118.7 778.1,118.6 779.1,110.5 777.3,104.7 783.1,102.3 791.4,103.5 795.9,96.9 798.2,89.5 800.9,87 
				804.4,80.9 793.2,82.9 787.3,85.6 777,85.6 774.3,79.2 766.2,74.4 754.4,72.2 751.9,65.5 749.6,61.4 747,58.5 742.8,51.6 
				736.9,49.1 726.7,47.1 717.7,47.3 709.3,48.5 703.6,51.9 707.4,53.5 707.5,57.2 703.7,59.4 697.6,66.6 697.6,69.6 688.1,73.9 
				679.9,71.3 671.8,71.9 668.3,69.6 664.2,68.9 654.2,73.7 645.3,74.8 639.1,76.5 630.5,75.4 624.2,75.4 620.1,72 613.4,68.7 
				606.6,67.8 598.1,68.7 591.6,70 582,67.1 580.7,62 572.7,60.3 566.6,59.5 559,56.7 551.9,63.7 554.7,67.7 548.1,72.4 538.3,70.7 
				531.5,70.5 527,67.3 519.9,67.2 514,65.1 503.6,68.3 490.7,74.2 483.5,75.3 480.9,75.9 477.3,71.7 468.5,72.6 465.6,69.8 
				460.9,68.4 457.6,64.5 453.9,63.3 444.1,65 434.8,61.1 431.2,64.7 416,47.5 407.3,42.2 409.8,40.1 392.8,46.5 386.3,46.9 
				386.9,43.2 378.1,40.9 371.1,42.5 368.9,35.5 356.7,34 350.6,36.8 333.6,39.3 330.3,41 304.9,43.4 301.8,45.7 306.7,50.3 
				300.2,52.1 301.5,53.9 294.9,57.3 305.9,61.9 304.2,65.1 294.7,64.8 292.7,66.9 284,63.3 273.3,63.5 266.1,66.3 258.1,63.6 
				243.1,58.9 232.5,59.1 218.5,66.5 217.6,71.4 210.6,67.5 205.2,74.9 207.2,76.3 203.3,81.5 209.1,86.1 214.1,85.9 218.4,90.4 
				217.7,93.9 221.2,95 227.5,93.6 235.4,90.6 241.1,92.3 247.9,91.9 249.1,96.1 247.9,102.7 242,101.7 236.2,102.8 236,107.8 
				229.4,107.2 229.6,109.4 233.3,111.1 236.4,117.2 244.3,119.5 245.6,121.9 243.9,124.7 244.3,126.3 246.4,130.7 247.1,125.8 
				252.5,124 254.5,127.9 259.4,132 253.5,134.2 247.1,132.5 245.6,138.2 250.1,138.6 248.3,143.3 253.6,145.6 252.6,152.7 
				253.9,157.5 253.2,159 242.6,160.8 233,159.7 228.3,156.3 221.8,154.9 219.7,149.8 219.5,146.5 222,144.9 223.2,142.5 
				224.4,137.2 229.9,136.7 227.9,134.9 224.7,134.6 221.2,129.7 217.7,126.2 213.6,128.9 212.5,130.6 209.4,130.2 204.8,126 
				202.9,125.8 198.6,124.2 196.5,121.5 190.2,120 186.1,121.1 184.9,119.8 175.7,116.6 165.7,115.5 159.9,114.3 159.1,115.1 
				161.6,117.2 165.3,118 169.3,120.5 171,125.1 169.9,128 161.9,131.6 156.1,131 148.2,132 138.4,129.4 126.6,124.6 115.4,124.7 
				107.5,126.7 99.3,131.1 86.4,130.2 83.5,135.3 73.1,135.6 65.5,142.1 69.8,145.3 66.5,150.6 71.5,154.4 75.5,161.1 82.9,161 
				89.5,164.6 94.2,163.8 95.7,161 103.1,161.2 108.6,164.9 118.9,164.1 123.5,160.2 129.2,161.8 133.3,161.2 130.8,163.7 
				133.3,166.8 131.6,169.6 132.2,174.8 132.1,175 128.7,179.8 126.3,185.3 126.1,185.4 125.2,187.1 123.8,192.3 122,195.4 
				122.4,195.8 120.5,198 124.3,207.9 124.9,209.7 125.2,210.7 124.3,213.4 124,215.8 123,219.5 126.3,219.5 129.8,224.1 
				133.9,229.6 136.6,234.7 138.6,236.2 140.5,239.7 140.1,241.2 142.3,245.1 146,246.5 149.2,249.2 153.1,256.7 152.8,260.7 
				153.6,265.4 158.1,271.9 161.1,273 165.8,277.7 167.7,283.2 171.3,288.9 174.8,291.3 175.3,294.1 177.4,296.1 178.3,299 
				178.6,302 177.7,303.3 178.4,306.4 177.1,306.7 179,309.5 180.4,314.5 181.5,316.5 181.3,320.2 183,324.2 187.7,324.5 
				189.9,323.6 193.3,323.8 194.3,322 196.1,321.5 197.6,319.7 199.3,319.4 205,319 209.3,317.7 213.3,314.9 215.3,315.3 
				218.3,314.9 224.4,310.1 235.2,307 242,304.1 242.2,301.8 243.5,298.8 248.4,296.9 251.5,296.6 256.1,294.3 259.8,294.9 
				263.1,293 263.1,290.3 265.7,288.6 269.9,288.6 271.5,287.2 272.1,283.9 276.4,281.3 279.5,281.4 280.2,280.5 279.3,276 
				280.4,272.6 281.8,270.9 284.9,271.3 287.4,266.6 290.3,264.5 291.4,262.6 293.8,258.5 293.9,257 291.4,256.1 289.6,253.9 
				286.5,250 282.5,248.8 277.5,247.9 273.7,245.4 270.7,240.8 269.8,235.4 270.7,234.2 271.3,231.4 270.5,230.8 268.5,233.1 
				264.2,237.3 259.1,241.6 254.5,246.2 250.4,246 244.8,245.8 239.5,246.9 239.2,245.1 238,245.4 236.7,242.8 238.2,238.8 
				238.1,234.8 236,232.7 234.2,233.4 232.3,237 232.8,241.9 231.8,240.3 230.9,238 228.9,236.1 228,233.9 228.7,231.6 228.3,228.8 
				223.7,225.9 222.5,223.6 219.2,222 216.5,216.2 214.3,211 214.9,209.5 213.5,206.5 217.6,206.8 220.1,204.2 224.4,206.4 
				228.1,205.3 233.1,214.4 237.6,220.8 244.1,222.7 251,228 259.3,230.2 266.1,226.9 271.3,225.7 274.6,226.9 277.5,235.2 
				285.2,236.1 292.6,237.7 305.3,239.7 314.9,238.8 325.9,238.7 338.4,237.4 343.7,242.5 345.7,247.4 350.7,249.1 358.6,254.9 
				360.6,257.6 357.4,260 366.2,268.2 371,269.1 380.9,265 382.2,271.4 382.2,279.6 384.2,288.3 387,301.4 393.2,310.7 394.4,315 
				396.1,323.5 399.7,330 402.1,333.2 404.7,340.1 407.8,349.6 414.2,355.9 416.9,353.9 419.2,349.3 425.4,347.4 423.4,345.2 
				426.4,340 430,339.7 430,328.1 432.9,321.7 432.5,316 431.1,307.2 433.1,302 436.3,301.7 442.4,299.3 445.8,297.6 445.8,294.5 
				452.6,290 457.7,285.7 465.3,277.7 475,273.2 478.7,269.2 478.3,264.1 486.6,262.6 491.3,262.7 492.2,260.2 494.9,260.9 
				496.8,261.6 497.8,260.4 500.7,261.7 502.8,258 502.2,255.2 508.4,255.4 511.3,259.4 512.6,262.7 512.9,266.1 514.9,269.7 
				519.7,275.2 523.7,276.1 522.8,278.5 528.2,286.3 529.6,292.7 527.2,301.1 531.4,302.7 535.3,303.3 543,298.5 547.4,295.1 
				550.4,300.7 551.6,309.2 553.8,317.4 556.6,320.9 556,328.3 558.3,332.3 556.2,337.5 556.9,342.5 554.9,349.1 554.1,353.3 
				555.4,357.1 556.5,353.1 559.8,356.3 563.4,360.1 564.6,363.5 567.3,366.1 568.8,369 568,373.9 570.5,377.6 571.4,383.2 
				575.3,387.8 576.1,391.2 584.2,396.6 590.6,401.6 595.4,401.2 595.5,398.9 592.9,392.9 590.5,391 590,387 589.3,384.7 590,381.6 
				589.6,377 586.8,372.5 582.8,368.4 581.2,367.7 577.7,364.2 573.6,363.4 569.8,359.5 568.6,353.7 565.8,347.5 561.4,347.3 
				560.9,342.3 563.1,336.3 566.8,326.4 567.3,319 573.3,318.9 572.3,324.3 578.1,324.1 584.2,327.2 587.7,334.3 590.4,337.8 
				596.1,338.8 601.1,342.6 599.2,347.2 601.7,351.6 610.2,345.3 615.7,339.6 623.5,335.2 629.1,330.8 630.1,318.8 626.9,306.3 
				622.8,300.8 616.7,296.6 610.3,287.8 605.1,280.6 606.6,275.9 612.3,269.5 621.3,263.7 624.5,262.6 633.6,264.7 632,267.4 
				633.8,272.3 637.6,271.9 639.9,264.7 647.1,263.7 656.6,260.3 660.4,256.9 662.8,259.1 666.9,256.1 674.6,255.3 684,249.6 
				693.3,243.3 699.6,235.2 705.1,226.3 710.1,219 713.9,218.4 715.6,213 716.6,207.5 712.7,205.4 711,201.7 715.3,199.9 
				715.4,194.8 710.8,189.6 706.7,183.4 704,176.7 696.7,173 700.2,168.2 706.8,164.8 709.9,161.2 719.6,159.3 718.5,155.7 
				714.1,155.5 708,152.9 700.4,157.7 695.1,155.8 694.8,152.7 689.3,151.6 685.7,147 689.2,143.8 695.8,143.5 700,139.1 
				707.7,134.4 713.6,132 717.2,135.6 711.8,140.1 713.2,142.8 709.6,145.9 716.9,144.1 721.9,140.9 731.4,138.9 734.6,140.7 
				738.6,141.5 739,142.6 737.3,146.3 737.9,147.5 736.3,148.3 734.4,151.3 736.3,152.4 738,153 738.3,154.3 740.2,153.7 
				741.1,152.4 744.4,153.7 749,159.5 744,160.7 747,167.7 745.7,172.8 746.5,176.5 752.6,175.9 758,173.1 			"/>
			<polygon class="st0" points="72.5,133.8 75.4,131.7 83.4,131.3 84.7,129.6 78.7,127.4 77.9,124.8 72.1,123.9 65.2,126 
				68.5,127.8 66.4,132.1 64.8,132.8 64.7,134.2 66.8,137.4 			"/>
			<polygon class="st0" points="436.6,347.1 431.9,343.3 428.9,354.3 430.1,364.1 433.3,369.5 439.2,367.9 442,366 443.1,358.9 
				439.8,351.8 			"/>
			<polygon class="st0" points="638.4,279.3 641.4,276.3 639.9,273.7 636,273.5 628.6,275.4 625.2,278.5 625.4,284.3 631,286.4 
				636.9,283.2 			"/>
			<polygon class="st0" points="710.4,255.3 714.5,244.4 715.7,240.3 712.6,238.3 707.2,243.4 703.2,250.1 703.9,255.1 707.5,260.8 
							"/>
			<polygon class="st0" points="701.9,305.4 702.9,308.3 706.3,312.2 707.2,309.8 709.2,311.4 707.1,313.1 706.7,315.9 710.1,317.4 
				716.3,316.4 720.6,320.5 722.3,318 724.8,321.5 730.1,324.9 730.8,321.7 728.6,320.1 729.3,316.4 720.8,312.6 717.8,313.5 
				714.2,312.7 712.7,307.3 713.7,301.8 717.7,299.6 719.5,293.9 717.2,289.1 718.3,286.3 717.7,284.5 715.6,286.3 711.4,284.4 
				707.3,284.4 705.1,290.5 704.4,301.1 701.7,298.9 			"/>
			<polygon class="st0" points="726.1,351 722.4,353.5 718.1,355.4 715.5,361.1 716.6,363.1 721.6,359.3 724.8,359.6 727,356.8 
				731.3,360 729.2,363.2 731.1,368.1 739.1,372.1 741,368.9 738.9,363.9 742,360.5 744.5,367.4 746.8,361.2 746.4,357.4 
				745.7,352.8 745.3,350.4 744.7,346.9 739.2,343.7 739.6,349 734.8,349.1 733.7,352.2 728.5,354 			"/>
			<polygon class="st0" points="695.9,342.1 700.3,338.3 699.1,332.8 695.6,339.5 691.5,344.2 686.6,348.4 683.3,353.2 692.3,346.7 
							"/>
			<polygon class="st0" points="722.5,336.1 721.7,340.3 720,342.2 718.6,344 722.8,348.7 724.9,346.7 727,342.4 729.5,340.2 
				730.1,333.7 725.1,340.3 726.2,335.7 			"/>
			<polygon class="st0" points="739.8,327.4 737.9,324.9 731.4,324.7 735.6,329.9 735.6,332.5 731.7,331.9 732.7,336 734.8,336.4 
				735,341.2 738.3,339.7 736.6,335.5 736.5,333.2 741.7,335 			"/>
			<polygon class="st0" points="715.2,329.2 716.3,332.5 715.8,335.9 716,339.1 720.4,337.1 723.5,334.2 723.6,331.3 719.3,331.3 
							"/>
			<polygon class="st0" points="708.1,323.7 711,327.1 712.8,321.2 710.5,318.8 704.6,318.6 			"/>
			<polygon class="st0" points="840.3,130.3 837.4,134.6 838.6,142.3 834.3,150.6 830.5,153.2 820.5,160 816,156.7 808.9,168.8 
				801.6,167.4 788.1,169.4 783.1,174.1 776.3,177.6 772.7,181.9 766.3,184 769.1,188.6 773.4,190.6 771.7,196.7 775,199.3 
				779.4,196.5 783.9,184.9 777,179.9 785,179.8 793,176.6 804.8,175.1 805.1,180.2 809.7,182.8 819.3,175.1 831.3,174.6 
				839.9,171.4 843.5,166.7 842.3,163.3 844.8,157.8 844.7,150.8 851,144 851.2,138.5 847.5,129.1 			"/>
			<polygon class="st0" points="874.3,108.7 869.5,111.6 864.8,110.1 859.5,107.8 851.6,100.8 849.6,106 847.6,115.4 840.3,115.8 
				837,121 837.9,127.8 845.5,127.7 849.1,120.3 859.8,124.9 865.8,118.2 875.8,116.3 			"/>
			<polygon class="st0" points="792.6,184 796.1,182.4 798.9,184.6 802.7,180.5 801.8,178.2 796.8,176.7 794,179.5 790.2,178.8 
				786.4,182.8 786.4,186 790.8,188 			"/>
			<polygon class="st0" points="118,170.7 122.6,167.8 116.4,169.9 111.5,169.8 110.5,171.4 110.1,171.4 106.8,171.7 108.4,174.4 
				111.7,175.3 118.7,172.5 118.5,172 			"/>
		</g>
	</g>
</g>
</svg>
